<svg xmlns="http://www.w3.org/2000/svg" width="35.733" height="28.864" viewBox="0 0 35.733 28.864">
  <g id="그룹_55" data-name="그룹 55" transform="translate(-1355.267 -63.136)">
    <g id="art-gallery-15" transform="translate(1353.133 60.998)">
      <path id="패스_119" data-name="패스 119" d="M22.848,8.533l-6.1-6.08a1.067,1.067,0,0,0-1.508-.006l-.006.006-6.08,6.08H3.2A1.067,1.067,0,0,0,2.133,9.6V28.8A1.067,1.067,0,0,0,3.2,29.867H28.8A1.067,1.067,0,0,0,29.867,28.8V9.6A1.067,1.067,0,0,0,28.8,8.533ZM16,4.715l3.819,3.819H12.181ZM27.733,27.733H4.267V10.667H27.733ZM10.667,17.067A2.133,2.133,0,1,1,12.8,14.933,2.133,2.133,0,0,1,10.667,17.067ZM25.6,25.6H9.6l3.2-6.4,2.667,5.333,4.8-9.6Z" fill="#1c1b1b"/>
    </g>
    <g id="합치기_5" data-name="합치기 5" transform="translate(3386 78)" fill="#1c1b1b">
      <path d="M -2003.00048828125 12.99970054626465 C -2004.103271484375 12.99970054626465 -2005.000366210938 12.1025505065918 -2005.000366210938 10.99980068206787 L -2005.000366210938 8.000200271606445 L -2008 8.000200271606445 C -2009.102783203125 8.000200271606445 -2009.999877929688 7.103050231933594 -2009.999877929688 6.000300407409668 C -2009.999877929688 4.897550106048584 -2009.102783203125 4.000400066375732 -2008 4.000400066375732 L -2005.000366210938 4.000400066375732 L -2005.000366210938 0.9999002814292908 C -2005.000366210938 -0.1028497293591499 -2004.103271484375 -0.9999997019767761 -2003.00048828125 -0.9999997019767761 C -2001.897216796875 -0.9999997019767761 -2000.999633789062 -0.1028497293591499 -2000.999633789062 0.9999002814292908 L -2000.999633789062 4.000400066375732 L -1998 4.000400066375732 C -1996.897216796875 4.000400066375732 -1996.000122070312 4.897550106048584 -1996.000122070312 6.000300407409668 C -1996.000122070312 7.103050231933594 -1996.897216796875 8.000200271606445 -1998 8.000200271606445 L -2000.999633789062 8.000200271606445 L -2000.999633789062 10.99980068206787 C -2000.999633789062 12.1025505065918 -2001.897216796875 12.99970054626465 -2003.00048828125 12.99970054626465 Z" stroke="none"/>
      <path d="M -2003.00048828125 11.99970054626465 C -2002.447875976562 11.99970054626465 -2001.999633789062 11.55240058898926 -2001.999633789062 10.99980068206787 L -2001.999633789062 7.000200271606445 L -1998 7.000200271606445 C -1997.447509765625 7.000200271606445 -1997.000122070312 6.552000045776367 -1997.000122070312 6.000300407409668 C -1997.000122070312 5.447700500488281 -1997.447509765625 5.000400066375732 -1998 5.000400066375732 L -2001.999633789062 5.000400066375732 L -2001.999633789062 0.9999002814292908 C -2001.999633789062 0.4473002851009369 -2002.447875976562 2.731323149873788e-07 -2003.00048828125 2.731323149873788e-07 C -2003.552124023438 2.731323149873788e-07 -2004.000366210938 0.4473002851009369 -2004.000366210938 0.9999002814292908 L -2004.000366210938 5.000400066375732 L -2008 5.000400066375732 C -2008.552490234375 5.000400066375732 -2008.999877929688 5.447700500488281 -2008.999877929688 6.000300407409668 C -2008.999877929688 6.552000045776367 -2008.552490234375 7.000200271606445 -2008 7.000200271606445 L -2004.000366210938 7.000200271606445 L -2004.000366210938 10.99980068206787 C -2004.000366210938 11.55240058898926 -2003.552124023438 11.99970054626465 -2003.00048828125 11.99970054626465 M -2003.00048828125 13.99970054626465 C -2004.654663085938 13.99970054626465 -2006.000366210938 12.65395069122314 -2006.000366210938 10.99980068206787 L -2006.000366210938 9.000200271606445 L -2008 9.000200271606445 C -2009.654174804688 9.000200271606445 -2010.999877929688 7.654450416564941 -2010.999877929688 6.000300407409668 C -2010.999877929688 4.346150398254395 -2009.654174804688 3.000400304794312 -2008 3.000400304794312 L -2006.000366210938 3.000400304794312 L -2006.000366210938 0.9999002814292908 C -2006.000366210938 -0.6542497277259827 -2004.654663085938 -1.999999761581421 -2003.00048828125 -1.999999761581421 C -2001.345825195312 -1.999999761581421 -1999.999633789062 -0.6542497277259827 -1999.999633789062 0.9999002814292908 L -1999.999633789062 3.000400304794312 L -1998 3.000400304794312 C -1996.345825195312 3.000400304794312 -1995.000122070312 4.346150398254395 -1995.000122070312 6.000300407409668 C -1995.000122070312 7.654450416564941 -1996.345825195312 9.000200271606445 -1998 9.000200271606445 L -1999.999633789062 9.000200271606445 L -1999.999633789062 10.99980068206787 C -1999.999633789062 12.65395069122314 -2001.345825195312 13.99970054626465 -2003.00048828125 13.99970054626465 Z" stroke="none" fill="#fff"/>
    </g>
  </g>
</svg>
