<svg xmlns="http://www.w3.org/2000/svg" width="15" height="15.134" viewBox="0 0 15 15.134">
  <g id="fast-food-outline" transform="translate(0.5 0.634)">
    <path id="패스_52" data-name="패스 52" d="M10.063,13a1.8,1.8,0,0,1-1.75,2H4.188a1.8,1.8,0,0,1-1.75-2" transform="translate(-1 -1)" fill="none" stroke="#000" stroke-linecap="round" stroke-miterlimit="10" stroke-width="1"/>
    <path id="패스_53" data-name="패스 53" d="M10.5,10.5c.552,0,1,.612,1,1.367h0c0,.755-.448,1.367-1,1.367H2c-.552,0-1-.612-1-1.367H1c0-.755.448-1.367,1-1.367" transform="translate(-1 -1.234)" fill="none" stroke="#000" stroke-linecap="round" stroke-miterlimit="10" stroke-width="1"/>
    <path id="패스_54" data-name="패스 54" d="M10.75,10.641H5.6a.24.24,0,0,0-.177.08l-.838.917a.118.118,0,0,1-.177,0l-.838-.917a.24.24,0,0,0-.177-.08H1.75A.788.788,0,0,1,1,9.82H1A.788.788,0,0,1,1.75,9h9a.788.788,0,0,1,.75.82h0A.788.788,0,0,1,10.75,10.641Z" transform="translate(-1 -1.375)" fill="none" stroke="#000" stroke-linecap="round" stroke-miterlimit="10" stroke-width="1"/>
    <path id="패스_55" data-name="패스 55" d="M2,8.625V8.618C2,6.9,3.406,6,5.125,6h2.25C9.094,6,10.5,6.906,10.5,8.625V8.618" transform="translate(-1 -1)" fill="none" stroke="#000" stroke-linecap="round" stroke-miterlimit="10" stroke-width="1"/>
    <path id="패스_56" data-name="패스 56" d="M7.531,3.5l.233,2" transform="translate(-1 -1)" fill="none" stroke="#000" stroke-linecap="round" stroke-miterlimit="10" stroke-width="1"/>
    <path id="패스_57" data-name="패스 57" d="M8,15h4.353a1,1,0,0,0,1-.925L14.469,3.5" transform="translate(-1 -1)" fill="none" stroke="#000" stroke-linecap="round" stroke-miterlimit="10" stroke-width="1"/>
    <path id="패스_58" data-name="패스 58" d="M11.5,3.5l.5-2L13.469,1" transform="translate(-1 -1)" fill="none" stroke="#000" stroke-linecap="round" stroke-linejoin="round" stroke-width="1"/>
    <path id="패스_59" data-name="패스 59" d="M7,3.5h8" transform="translate(-1 -1)" fill="none" stroke="#000" stroke-linecap="round" stroke-miterlimit="10" stroke-width="1"/>
  </g>
</svg>
