<svg xmlns="http://www.w3.org/2000/svg" width="15" height="10" viewBox="0 0 15 10">
  <g id="그룹_71" data-name="그룹 71" transform="translate(0 -3.344)">
    <path id="패스_14" data-name="패스 14" d="M15.643,8.12A8.413,8.413,0,0,0,8.264,3.347,8.384,8.384,0,0,0,.9,8.12l-.131.224.121.229a8.413,8.413,0,0,0,7.379,4.773,8.364,8.364,0,0,0,7.379-4.773l.121-.229ZM8.264,12.368A7.4,7.4,0,0,1,1.828,8.344,7.4,7.4,0,0,1,8.264,4.32,7.429,7.429,0,0,1,14.7,8.344,7.425,7.425,0,0,1,8.264,12.368Z" transform="translate(-0.764 -0.002)" fill="#878787"/>
    <path id="패스_15" data-name="패스 15" d="M8.04,4.964A3.241,3.241,0,0,0,5.013,8.379a3.23,3.23,0,0,0,3.065,3.372,3.239,3.239,0,0,0,3.033-3.408,3.594,3.594,0,0,0-.906-2.4,2.9,2.9,0,0,0-2.166-.98Zm0,5.8A2.3,2.3,0,0,1,5.9,8.346,2.291,2.291,0,0,1,8.061,5.954a2.29,2.29,0,0,1,2.161,2.389,2.554,2.554,0,0,1-.637,1.717,2.057,2.057,0,0,1-1.545.7Z" transform="translate(-0.398 -0.002)" fill="#878787"/>
  </g>
</svg>
