<svg id="plug" xmlns="http://www.w3.org/2000/svg" width="12" height="16" viewBox="0 0 12 16">
  <g id="그룹_15" data-name="그룹 15">
    <path id="패스_35" data-name="패스 35" d="M6.8,0a.557.557,0,0,1,.6.5V3H11V.5a.61.61,0,0,1,1.2,0V3h1.2a.557.557,0,0,1,.6.5v3C14,8.433,12.12,10,9.8,10c0,.434-.012.845-.048,1.22a3.7,3.7,0,0,1-.38,1.424,2.3,2.3,0,0,1-1.164,1.028A5.167,5.167,0,0,1,6.2,14a3.448,3.448,0,0,0-2.369.718A1.771,1.771,0,0,0,3.2,16H2a2.683,2.683,0,0,1,.956-1.968A4.772,4.772,0,0,1,6.2,13a3.79,3.79,0,0,0,1.462-.219,1.2,1.2,0,0,0,.617-.55,2.847,2.847,0,0,0,.276-1.09c.032-.34.042-.718.044-1.141C6.28,10,4.4,8.433,4.4,6.5v-3A.557.557,0,0,1,5,3H6.2V.5A.557.557,0,0,1,6.8,0ZM5.6,4V6.5A2.784,2.784,0,0,0,8.6,9H9.8a2.784,2.784,0,0,0,3-2.5V4Z" transform="translate(-2)"/>
  </g>
</svg>
