<svg id="gamepad" xmlns="http://www.w3.org/2000/svg" width="15" height="16" viewBox="0 0 15 16">
  <path id="패스_60" data-name="패스 60" d="M11.5,5.25h-3v-2H14a.751.751,0,0,0,.75-.75v-3h-1V2.25H8.25A.751.751,0,0,0,7.5,3V5.25h-3a4,4,0,0,0-4,4V12.4A2.848,2.848,0,0,0,3.345,15.25H3.4a2.838,2.838,0,0,0,2.186-1.024L7.234,12.25h1.52L10.4,14.39a2.845,2.845,0,0,0,5.1-1.735V9.25a4,4,0,0,0-4-4Zm3,7.4a1.845,1.845,0,0,1-3.308,1.125L9.246,11.25H6.766L4.819,13.586A1.84,1.84,0,0,1,3.4,14.25H3.345A1.847,1.847,0,0,1,1.5,12.4V9.25a3,3,0,0,1,3-3h7a3,3,0,0,1,3,3Z" transform="translate(-0.5 0.5)"/>
  <path id="패스_61" data-name="패스 61" d="M11.25,7.75h1v1h-1Z" transform="translate(-0.5 0.5)"/>
  <path id="패스_62" data-name="패스 62" d="M11.25,10.25h1v1h-1Z" transform="translate(-0.5 0.5)"/>
  <path id="패스_63" data-name="패스 63" d="M10,9h1v1H10Z" transform="translate(-0.5 0.5)"/>
  <path id="패스_64" data-name="패스 64" d="M12.5,9h1v1h-1Z" transform="translate(-0.5 0.5)"/>
  <path id="패스_65" data-name="패스 65" d="M4.75,7.75h-1V9H2.5v1H3.75v1.25h1V10H6V9H4.75Z" transform="translate(-0.5 0.5)"/>
</svg>
