<svg id="couch" xmlns="http://www.w3.org/2000/svg" width="15" height="14" viewBox="0 0 15 14">
  <path id="패스_110" data-name="패스 110" d="M14,7.47V3.724A1.489,1.489,0,0,0,12.5,2.25h-9A1.489,1.489,0,0,0,2,3.724V7.47a1.975,1.975,0,0,0-1.5,1.9v4.421a.992.992,0,0,0,1,.982H2V16.25H3V14.776H13V16.25h1V14.776h.5a.992.992,0,0,0,1-.982V9.373A1.975,1.975,0,0,0,14,7.47ZM3.5,13.794h-2V9.373a1,1,0,0,1,2,0Zm8,0h-7V9.864h7Zm.063-4.912H4.437A1.99,1.99,0,0,0,3,7.47V3.724a.5.5,0,0,1,.5-.491h9a.5.5,0,0,1,.5.491V7.47A1.99,1.99,0,0,0,11.563,8.882ZM14.5,13.794h-2V9.373a1,1,0,0,1,2,0v4.421Z" transform="translate(-0.5 -2.25)"/>
</svg>
