<svg xmlns="http://www.w3.org/2000/svg" width="16.985" height="17.003" viewBox="0 0 16.985 17.003">
  <g id="paint-brush" transform="translate(0.5 0.5)">
    <path id="패스_66" data-name="패스 66" d="M14.422,0a1.6,1.6,0,0,1,1.094.415,1.332,1.332,0,0,1,.469,1.04,3.08,3.08,0,0,1-.4,1.348Q12.618,8.421,11.43,9.519a2.775,2.775,0,0,1-1.947.813A2.61,2.61,0,0,1,7.55,9.506a2.708,2.708,0,0,1-.808-1.96,2.454,2.454,0,0,1,.822-1.893l5.7-5.17A1.683,1.683,0,0,1,14.422,0ZM6.3,9.234a3.544,3.544,0,0,0,.951,1.161,3.61,3.61,0,0,0,1.344.679l.009.634a4.085,4.085,0,0,1-1.156,3.1A4.2,4.2,0,0,1,4.34,16a4.374,4.374,0,0,1-1.947-.415,3.548,3.548,0,0,1-1.362-1.139,5.3,5.3,0,0,1-.772-1.634A7.158,7.158,0,0,1,0,10.85l.366.268q.3.223.554.4a5.805,5.805,0,0,0,.527.326,1,1,0,0,0,.411.152.48.48,0,0,0,.491-.33,4.586,4.586,0,0,1,.513-1,3.211,3.211,0,0,1,.621-.679,2.678,2.678,0,0,1,.786-.424,4.83,4.83,0,0,1,.92-.228A11.187,11.187,0,0,1,6.3,9.234Z" fill="none" stroke="#292929" stroke-width="1"/>
  </g>
</svg>
