<svg id="flask-line" xmlns="http://www.w3.org/2000/svg" width="14" height="16" viewBox="0 0 14 16">
  <path id="패스_32" data-name="패스 32" d="M15.335,13.528l-3.581-6.22V1.889h.425a.467.467,0,0,0,.425-.5.467.467,0,0,0-.425-.5H5.171a.467.467,0,0,0-.425.5.467.467,0,0,0,.425.5H5.6v5.42L1.99,13.568a2.437,2.437,0,0,0,.208,2.72,1.714,1.714,0,0,0,1.338.6H13.878a1.794,1.794,0,0,0,1.6-1.158,2.439,2.439,0,0,0-.144-2.2Zm-.671,1.86a1.066,1.066,0,0,1-.849.5H3.472a.951.951,0,0,1-.875-.7A1.547,1.547,0,0,1,2.72,14.1l1.274-2.22h7.858l-.556-1H4.564l1.882-3.26V1.889h4.46v5.73l3.755,6.525A1.281,1.281,0,0,1,14.664,15.388Z" transform="translate(-1.671 -0.889)"/>
</svg>
