<svg xmlns="http://www.w3.org/2000/svg" width="31.309" height="24.658" viewBox="0 0 31.309 24.658">
  <g id="그룹_43" data-name="그룹 43" transform="translate(-11.302 -1123.342)">
    <path id="패스_143" data-name="패스 143" d="M2032.3,1124.342h4.238l6.011,15.957h15.124l3.937-12.223h-19.06" transform="translate(-2020)" fill="none" stroke="#1c1b1b" stroke-linecap="round" stroke-linejoin="round" stroke-width="2"/>
    <path id="합치기_13" data-name="합치기 13" d="M-2161.7.5a2.5,2.5,0,0,1,2.5-2.5,2.5,2.5,0,0,1,2.5,2.5,2.5,2.5,0,0,1-2.5,2.5A2.5,2.5,0,0,1-2161.7.5Zm-13,0a2.5,2.5,0,0,1,2.5-2.5,2.5,2.5,0,0,1,2.5,2.5,2.5,2.5,0,0,1-2.5,2.5A2.5,2.5,0,0,1-2174.7.5Z" transform="translate(2195.698 1145)" fill="#1c1b1b"/>
    <path id="패스_144" data-name="패스 144" d="M29.937,1131.595v7" transform="translate(0 -1)" fill="none" stroke="#1c1b1b" stroke-linecap="round" stroke-width="2"/>
    <path id="패스_145" data-name="패스 145" d="M29.937,1131.595v7" transform="translate(1165.032 1104.157) rotate(90)" fill="none" stroke="#1c1b1b" stroke-linecap="round" stroke-width="2"/>
  </g>
</svg>
