<svg xmlns="http://www.w3.org/2000/svg" width="15" height="15" viewBox="0 0 15 15">
  <path id="패스_105" data-name="패스 105" d="M12.291,5.331,10.454,2.449a1.474,1.474,0,0,0-1.212-.7L5.757,1.693H5.75c-1.8,0-3.18.327-4.069,1.923C.853,5.1.5,7.631.5,12.076v.543H1.642L.907,16.693H1.926l.735-4.074H3a2.983,2.983,0,0,0,2.19-.95A4.537,4.537,0,0,0,6.3,9.486l0-.008.858-4.464H6.135L5.323,9.24A2.575,2.575,0,0,1,3,11.532H1.5c.027-3.845.349-6.125,1.035-7.355.575-1.032,1.415-1.4,3.21-1.4l3.481.054a.491.491,0,0,1,.4.234l2.077,3.26,2.791.505v.576l-.465,2.7c-.137.8-.372,1.2-1.335,1.322l-3.947.734-.026,4.532h1l.021-3.615,3.084-.574a2.425,2.425,0,0,0,1.576-.748,2.8,2.8,0,0,0,.61-1.451l.482-2.8v-1.6Z" transform="translate(-0.5 -1.693)"/>
</svg>
