<svg id="pin-map" xmlns="http://www.w3.org/2000/svg" width="16" height="16" viewBox="0 0 16 16">
  <g id="그룹_14" data-name="그룹 14">
    <path id="패스_30" data-name="패스 30" d="M3.1,11.2a.5.5,0,0,1,.4-.2H6a.5.5,0,0,1,0,1H3.75L1.5,15h13l-2.25-3H10a.5.5,0,0,1,0-1h2.5a.5.5,0,0,1,.4.2l3,4a.5.5,0,0,1-.4.8H.5a.5.5,0,0,1-.4-.8Z" transform="translate(0 0)" fill-rule="evenodd"/>
    <path id="패스_31" data-name="패스 31" d="M8,1a3,3,0,1,0,3,3A3,3,0,0,0,8,1ZM4,4A4,4,0,1,1,8.5,7.969V13.5a.5.5,0,0,1-1,0V7.97A4,4,0,0,1,4,4Z" transform="translate(0 0)" fill-rule="evenodd"/>
  </g>
</svg>
