<svg xmlns="http://www.w3.org/2000/svg" width="15" height="14" viewBox="0 0 15 14">
  <g id="shirt-outline" transform="translate(0.5 0.5)">
    <path id="패스_33" data-name="패스 33" d="M9.83,1.5A6.036,6.036,0,0,1,8,1.75,6.036,6.036,0,0,1,6.17,1.5a1,1,0,0,0-.33.056L1,3.25,1.52,6l1.527.173a.75.75,0,0,1,.665.768L3.5,14.5h9l-.212-7.559a.75.75,0,0,1,.665-.768L14.48,6,15,3.25,10.16,1.556A1,1,0,0,0,9.83,1.5Z" transform="translate(-1 -1.5)" fill="none" stroke="#000" stroke-linecap="round" stroke-linejoin="round" stroke-width="1"/>
    <path id="패스_34" data-name="패스 34" d="M10.416,1.646a2.5,2.5,0,0,1-4.832,0" transform="translate(-1 -1.5)" fill="none" stroke="#000" stroke-linecap="round" stroke-linejoin="round" stroke-width="1"/>
  </g>
</svg>
