<svg id="mickeymouse" xmlns="http://www.w3.org/2000/svg" width="16" height="15.005" viewBox="0 0 16 15.005">
  <path id="패스_109" data-name="패스 109" d="M13.578,6.815a5.968,5.968,0,0,1-.383,5.2A5.956,5.956,0,0,1,11.008,14.2a6.022,6.022,0,0,1-6.016,0A5.956,5.956,0,0,1,2.8,12.012a5.968,5.968,0,0,1-.383-5.2A3.4,3.4,0,0,1,.672,5.556,3.386,3.386,0,0,1,0,3.5,3.375,3.375,0,0,1,1.023,1.024,3.373,3.373,0,0,1,3.5,0,3.355,3.355,0,0,1,5.828.891a3.363,3.363,0,0,1,1.125,2.2A6.391,6.391,0,0,1,8,3a6.391,6.391,0,0,1,1.047.094,3.363,3.363,0,0,1,1.125-2.2,3.5,3.5,0,0,1,4.8.133A3.375,3.375,0,0,1,16,3.5a3.476,3.476,0,0,1-2.422,3.314Z" transform="translate(0 0)"/>
</svg>
