<svg id="baseball" xmlns="http://www.w3.org/2000/svg" width="15.099" height="14.836" viewBox="0 0 15.099 14.836">
  <path id="패스_67" data-name="패스 67" d="M3.375,6.25A2.875,2.875,0,1,0,.5,3.375,2.875,2.875,0,0,0,3.375,6.25Zm0-4.75A1.875,1.875,0,1,1,1.5,3.375,1.875,1.875,0,0,1,3.375,1.5Z" transform="translate(-0.5 -0.5)"/>
  <path id="패스_68" data-name="패스 68" d="M14.9,1.2a2.375,2.375,0,0,0-3.359,0l-.171.171q-.991.991-1.9,2.056l-.01.012L5.122,9.171,2.455,11.838A1.2,1.2,0,0,0,1.013,13.72L2.28,14.987a1.2,1.2,0,0,0,1.882-1.442l2.664-2.664L12.448,6.8l.026-.02q1.265-1.055,2.43-2.22a2.378,2.378,0,0,0,0-3.359ZM14.2,3.847Q13.07,4.974,11.846,6L6.174,10.119l-3.4,3.4L3.263,14a.2.2,0,1,1-.277.277L1.72,13.013A.2.2,0,1,1,2,12.737l.487.487L5.878,9.829,10.24,4.062q.883-1.029,1.842-1.988l.171-.171A1.375,1.375,0,1,1,14.2,3.847Z" transform="translate(-0.5 -0.5)"/>
</svg>
