<svg xmlns="http://www.w3.org/2000/svg" width="55" height="55" viewBox="0 0 55 55">
  <g id="__TEMP__SVG__" transform="translate(-4.5 -4.5)">
    <path id="패스_644" data-name="패스 644" d="M58,32A26,26,0,1,0,32,58,26.007,26.007,0,0,0,58,32Z" fill="none" stroke="#dfdfdf" stroke-miterlimit="10" stroke-width="3"/>
    <path id="패스_645" data-name="패스 645" d="M23.462,15.817l.777,16.514.776-16.514A.777.777,0,0,0,24.231,15h0a.777.777,0,0,0-.769.813Z" transform="translate(7.761 4.002)" fill="none" stroke="#dfdfdf" stroke-linecap="round" stroke-linejoin="round" stroke-width="3"/>
    <path id="패스_646" data-name="패스 646" d="M24.833,36.158a2.708,2.708,0,1,1,2.708-2.708A2.708,2.708,0,0,1,24.833,36.158Z" transform="translate(7.167 10.996)" fill="#dfdfdf" stroke="#dfdfdf" stroke-width="0.094"/>
  </g>
</svg>
