<svg xmlns="http://www.w3.org/2000/svg" width="40" height="40" viewBox="0 0 40 40">
  <circle id="타원_7" data-name="타원 7" cx="20" cy="20" r="20" fill="#fff"/>
  <g id="alert-triangle-fill" transform="translate(7.987 8.003)">
    <path id="패스_115" data-name="패스 115" d="M22.56,16.3,14.89,3.58a3.43,3.43,0,0,0-5.78,0L1.44,16.3a3,3,0,0,0-.05,3A3.37,3.37,0,0,0,4.33,21H19.67a3.37,3.37,0,0,0,2.94-1.66,3,3,0,0,0-.05-3.04ZM12,17a1,1,0,1,1,1-1A1,1,0,0,1,12,17Zm1-4a1,1,0,0,1-2,0V9a1,1,0,0,1,2,0Z" transform="translate(0 0)" fill="#ff5050"/>
  </g>
</svg>
