<svg xmlns="http://www.w3.org/2000/svg" width="58.233" height="44.575" viewBox="0 0 58.233 44.575">
  <g id="faq" transform="translate(-782.884 -354)">
    <g id="commenting-o" transform="translate(782.884 354)">
      <path id="패스_661" data-name="패스 661" d="M24,3.429a27.782,27.782,0,0,0-10.22,1.862,19.234,19.234,0,0,0-7.555,5.023,10.124,10.124,0,0,0-2.8,6.831,9.777,9.777,0,0,0,1.915,5.72,16.328,16.328,0,0,0,5.4,4.7l2.331,1.34-.723,2.572a19.21,19.21,0,0,1-1.875,4.608,26.421,26.421,0,0,0,7.367-4.581l1.152-1.018,1.527.161A30.317,30.317,0,0,0,24,30.862,27.782,27.782,0,0,0,34.224,29a19.234,19.234,0,0,0,7.555-5.023,10.124,10.124,0,0,0,2.8-6.831,10.124,10.124,0,0,0-2.8-6.831,19.234,19.234,0,0,0-7.555-5.023A27.782,27.782,0,0,0,24,3.429Zm24,13.716a13.363,13.363,0,0,1-3.215,8.613A21.711,21.711,0,0,1,36.059,32,31.142,31.142,0,0,1,24,34.291a36.641,36.641,0,0,1-3.885-.214A29.282,29.282,0,0,1,7.8,40.56a20.186,20.186,0,0,1-3.054.589H4.608a1.07,1.07,0,0,1-.723-.281,1.365,1.365,0,0,1-.429-.737V40.1a.353.353,0,0,1-.013-.321.717.717,0,0,0,.054-.268q-.013-.054.121-.255l.161-.241.188-.228.214-.241q.188-.214.83-.924t.924-1.018q.281-.308.83-1.058a10.89,10.89,0,0,0,.871-1.366q.321-.616.723-1.581a17.028,17.028,0,0,0,.7-2.036,19.669,19.669,0,0,1-6.631-5.894A13,13,0,0,1,0,17.146a12.762,12.762,0,0,1,1.9-6.657A18.274,18.274,0,0,1,7.019,5.01a26.074,26.074,0,0,1,7.662-3.657A31.856,31.856,0,0,1,24,0a31.856,31.856,0,0,1,9.323,1.353A26.074,26.074,0,0,1,40.989,5.01a18.274,18.274,0,0,1,5.117,5.479A12.762,12.762,0,0,1,48.008,17.146Z" fill="#1c1b1b"/>
    </g>
    <text id="FAQ-2" data-name="FAQ" transform="translate(807.388 376)" fill="#1c1b1b" font-size="14" font-family="Arial-BoldMT, Arial" font-weight="700"><tspan x="-14.39" y="0">FAQ</tspan></text>
    <path id="패스_662" data-name="패스 662" d="M47.834,36.644q.313.752.643,1.379a7.933,7.933,0,0,0,.784,1.207q.455.58.705.909t.815.925q.564.6.721.784.031.031.125.141t.141.157a1.333,1.333,0,0,1,.125.157,1.413,1.413,0,0,1,.11.172l.078.157.063.188.016.2-.031.2a1.162,1.162,0,0,1-.407.69.946.946,0,0,1-.69.219,25.039,25.039,0,0,1-11.41-4.514,31.488,31.488,0,0,1-5.517.5,26.337,26.337,0,0,1-14.8-4.138q1.818.125,2.758.125A33.112,33.112,0,0,0,31.754,34.7a27.747,27.747,0,0,0,8.275-4.044,20.974,20.974,0,0,0,6.018-6.645,16.128,16.128,0,0,0,1.379-12.727,18.571,18.571,0,0,1,6.395,5.58,12.234,12.234,0,0,1,.125,14.247A18.387,18.387,0,0,1,47.834,36.644Z" transform="translate(784.945 354.436)" fill="#ffb300"/>
  </g>
</svg>
