<svg xmlns="http://www.w3.org/2000/svg" width="120" height="120" viewBox="0 0 120 120">
  <g id="그룹_79" data-name="그룹 79" transform="translate(-135 -90)">
    <circle id="타원_36" data-name="타원 36" cx="60" cy="60" r="60" transform="translate(135 90)" fill="#f8f8f8"/>
    <g id="person-video3" transform="translate(171 123)">
      <g id="그룹_76" data-name="그룹 76">
        <path id="패스_244" data-name="패스 244" d="M42,28.5a6,6,0,1,1-6-6A6,6,0,0,1,42,28.5ZM24,45.6A2.351,2.351,0,0,0,26.4,48H45.6A2.351,2.351,0,0,0,48,45.6c0-2.4-2.4-9.6-12-9.6S24,43.2,24,45.6Z" fill="#ffb300"/>
        <path id="패스_245" data-name="패스 245" d="M6,6a6,6,0,0,0-6,6V36a6,6,0,0,0,6,6H21.729a13.663,13.663,0,0,1,1.578-3H6a3,3,0,0,1-3-3V12A3,3,0,0,1,6,9H42a3,3,0,0,1,3,3V35.43a13.425,13.425,0,0,1,2.73,2.349A5.9,5.9,0,0,0,48,36V12a6,6,0,0,0-6-6Z" fill="#ffb300"/>
      </g>
    </g>
  </g>
</svg>
