<svg xmlns="http://www.w3.org/2000/svg" width="12.802" height="16.001" viewBox="0 0 12.802 16.001">
  <path id="합치기_17" data-name="합치기 17" d="M-11777.464-1195.937c-.937-.937-.937-2.448-.937-5.463v-3.2c0-3.015,0-4.526.937-5.463s2.447-.937,5.463-.937c0,3.018,0,4.526.939,5.463s2.445.937,5.463.937v3.2c0,3.015,0,4.526-.939,5.463s-2.445.937-5.463.937S-11776.526-1195-11777.464-1195.937Zm2.64-5.087a.6.6,0,0,0,0,.848l2.4,2.4a.6.6,0,0,0,.849,0l2.4-2.4a.6.6,0,0,0,0-.848.6.6,0,0,0-.849,0l-1.378,1.375v-3.512a.6.6,0,0,0-.6-.6.6.6,0,0,0-.6.6v3.512l-1.377-1.375a.6.6,0,0,0-.424-.175A.6.6,0,0,0-11774.824-1201.024Zm6.184-4.857a2.079,2.079,0,0,1-2.08-2.078v-2.377a.429.429,0,0,1,.605-.39,8.537,8.537,0,0,1,4.239,4.242.425.425,0,0,1-.388.6Z" transform="translate(11778.4 1211.001)" fill="#5157ff"/>
</svg>
