<svg xmlns="http://www.w3.org/2000/svg" width="120" height="120" viewBox="0 0 120 120">
  <g id="그룹_80" data-name="그룹 80" transform="translate(-695 -574)">
    <circle id="타원_36" data-name="타원 36" cx="60" cy="60" r="60" transform="translate(695 574)" fill="#f8f8f8"/>
    <g id="building" transform="translate(731 607.999)">
      <g id="그룹_78" data-name="그룹 78" transform="translate(0 0.001)">
        <g id="그룹_77" data-name="그룹 77">
          <path id="패스_248" data-name="패스 248" d="M47.242.241A1.6,1.6,0,0,1,48,1.6v48a1.6,1.6,0,0,1-1.6,1.6H36.8a1.6,1.6,0,0,1-1.6-1.6V44.8H32v4.8a1.6,1.6,0,0,1-1.6,1.6H1.6A1.6,1.6,0,0,1,0,49.6V32a1.6,1.6,0,0,1,1.094-1.517L19.2,24.449V14.4a1.6,1.6,0,0,1,.883-1.43L45.683.17a1.6,1.6,0,0,1,1.558.07ZM19.2,27.821l-16,5.331V48h16ZM22.4,48h6.4V43.2a1.6,1.6,0,0,1,1.6-1.6h6.4a1.6,1.6,0,0,1,1.6,1.6V48h6.4V4.189l-22.4,11.2Z" transform="translate(0 -0.001)" fill="#ffb300" fill-rule="evenodd"/>
          <path id="패스_249" data-name="패스 249" d="M18,52.6h3.2v3.2H18Zm6.4,0h3.2v3.2H24.4ZM18,59h3.2v3.2H18Zm6.4,0h3.2v3.2H24.4ZM37.2,46.2h3.2v3.2H37.2Zm6.4,0h3.2v3.2H43.6Zm-6.4,6.4h3.2v3.2H37.2Zm6.4,0h3.2v3.2H43.6ZM50,46.2h3.2v3.2H50Zm0,6.4h3.2v3.2H50ZM37.2,39.8h3.2V43H37.2Zm6.4,0h3.2V43H43.6Zm6.4,0h3.2V43H50ZM37.2,33.4h3.2v3.2H37.2Zm6.4,0h3.2v3.2H43.6Zm6.4,0h3.2v3.2H50ZM50,27h3.2v3.2H50Z" transform="translate(-11.6 -17.4)" fill="#ffb300"/>
        </g>
      </g>
    </g>
  </g>
</svg>
