<svg xmlns="http://www.w3.org/2000/svg" width="60" height="42" viewBox="0 0 60 42">
  <g id="cloud-arrow-up" transform="translate(0 -6)">
    <g id="그룹_74" data-name="그룹 74" transform="translate(0 6)">
      <path id="패스_240" data-name="패스 240" d="M22.938,15.438a1.5,1.5,0,0,1,2.124,0l6,6a1.5,1.5,0,0,1-2.124,2.124L25.5,20.121V31.5a1.5,1.5,0,0,1-3,0V20.121l-3.438,3.441a1.5,1.5,0,0,1-2.124-2.124Z" transform="translate(6 -0.601)" fill="#dfdfdf" fill-rule="evenodd"/>
      <path id="패스_241" data-name="패스 241" d="M16.523,11.124A20.522,20.522,0,0,1,30,6,19.389,19.389,0,0,1,49.373,23.483,12.317,12.317,0,0,1,47.576,48h-33.4a14.053,14.053,0,0,1-3.146-27.777A16.108,16.108,0,0,1,16.523,11.124Zm2.449,2.89c-2.839,2.493-4.324,5.5-4.324,7.85v1.711l-1.669.187a10.236,10.236,0,0,0,1.2,20.42h33.4a8.507,8.507,0,1,0,0-17.01H45.7V25.263A15.569,15.569,0,0,0,30,9.818a16.811,16.811,0,0,0-11.029,4.2Z" transform="translate(0 -6)" fill="#dfdfdf"/>
    </g>
  </g>
</svg>
