<svg xmlns="http://www.w3.org/2000/svg" width="139" height="136" viewBox="0 0 139 136">
  <g id="프로필사진" transform="translate(-377 -350)">
    <path id="사각형_293" data-name="사각형 293" d="M50,0H70a50,50,0,0,1,50,50v86a0,0,0,0,1,0,0H50A50,50,0,0,1,0,86V50A50,50,0,0,1,50,0Z" transform="translate(377 350)" fill="#fff"/>
    <g id="그룹_101" data-name="그룹 101" transform="translate(412 393.9)">
      <ellipse id="타원_26" data-name="타원 26" cx="13.464" cy="13.046" rx="13.464" ry="13.046" transform="translate(11.536)" fill="#ffb300"/>
      <path id="패스_181" data-name="패스 181" d="M171.4,165.594c0-.073-.007-.148-.011-.222-.439-7.645-6.291-13.444-13.033-13.444h-1.665l-.024.009a15.658,15.658,0,0,1-20.516,0l-.024-.009H134.46c-6.742,0-12.594,5.8-13.033,13.444,0,.074-.008.149-.011.222-.2,4.477,3.024,8.193,6.969,8.193H164.43C168.374,173.787,171.6,170.071,171.4,165.594Z" transform="translate(-121.407 -126.698)" fill="#ffb300"/>
    </g>
    <g id="그룹_82" data-name="그룹 82" transform="translate(-2 74)">
      <circle id="타원_27" data-name="타원 27" cx="19.5" cy="19.5" r="19.5" transform="translate(479 373)" fill="#ffb300"/>
      <path id="Icon_awesome-pen" data-name="Icon awesome-pen" d="M10.605,3.4l4.67,4.67L5.135,18.212l-4.164.46A.876.876,0,0,1,0,17.7l.463-4.167L10.605,3.4Zm7.558-.7L15.971.514a1.752,1.752,0,0,0-2.477,0L11.431,2.576l4.67,4.67,2.063-2.063a1.752,1.752,0,0,0,0-2.477Z" transform="translate(489.001 383)" fill="#fff"/>
    </g>
  </g>
</svg>
