<svg xmlns="http://www.w3.org/2000/svg" width="12" height="12" viewBox="0 0 12 12">
  <g id="android-settings" transform="translate(-4.5 -4.5)">
    <path id="패스_643" data-name="패스 643" d="M15.056,11.1a3.752,3.752,0,0,0,.031-.6c0-.21-.031-.39-.031-.6l1.288-.99a.276.276,0,0,0,.061-.39L15.179,6.45a.3.3,0,0,0-.368-.12l-1.534.6a4.466,4.466,0,0,0-1.043-.6l-.215-1.59a.329.329,0,0,0-.307-.24H9.257a.329.329,0,0,0-.307.24L8.7,6.33a5.2,5.2,0,0,0-1.043.6l-1.534-.6a.287.287,0,0,0-.368.12L4.532,8.52a.362.362,0,0,0,.061.39l1.319.99c0,.21-.031.39-.031.6s.031.39.031.6l-1.288.99a.276.276,0,0,0-.061.39L5.79,14.55a.3.3,0,0,0,.368.12l1.534-.6a4.465,4.465,0,0,0,1.043.6l.245,1.59a.3.3,0,0,0,.307.24h2.455a.329.329,0,0,0,.307-.24l.246-1.59a5.193,5.193,0,0,0,1.043-.6l1.534.6a.287.287,0,0,0,.368-.12l1.227-2.07a.362.362,0,0,0-.061-.39l-1.35-.99Zm-4.572,1.5a2.1,2.1,0,1,1,2.148-2.1A2.111,2.111,0,0,1,10.484,12.6Z" fill="#fff"/>
  </g>
</svg>
