<svg xmlns="http://www.w3.org/2000/svg" width="40" height="28" viewBox="0 0 40 28">
  <path id="패스_240" data-name="패스 240" d="M20.791,15.291a1,1,0,0,1,1.416,0l4,4a1,1,0,0,1-1.416,1.416L22.5,18.413V26a1,1,0,0,1-2,0V18.413l-2.292,2.294a1,1,0,1,1-1.416-1.416Z" transform="translate(-1.499 -5.4)" fill="#b9b9b9" fill-rule="evenodd"/>
  <path id="패스_241" data-name="패스 241" d="M11.015,9.416A13.681,13.681,0,0,1,20,6,12.926,12.926,0,0,1,32.915,17.656,8.211,8.211,0,0,1,31.717,34H9.452a9.369,9.369,0,0,1-2.1-18.518A10.738,10.738,0,0,1,11.015,9.416Zm1.632,1.927a7.577,7.577,0,0,0-2.882,5.233v1.14l-1.113.125a6.824,6.824,0,0,0,.8,13.613H31.717a5.671,5.671,0,1,0,0-11.34h-1.25V18.842A10.379,10.379,0,0,0,20,8.545a11.207,11.207,0,0,0-7.352,2.8Z" transform="translate(0 -6)" fill="#b9b9b9"/>
</svg>
