<svg xmlns="http://www.w3.org/2000/svg" width="18" height="17" viewBox="0 0 18 17">
  <g id="picture-o" transform="translate(-1 -1)">
    <path id="패스_225" data-name="패스 225" d="M15.8,10.292v4.542H4.2V13.458L7.2,9.5l2,.979,3.4-5.333ZM17,2.583H3a.386.386,0,0,0-.281.118.378.378,0,0,0-.119.278V16.021a.378.378,0,0,0,.119.278A.386.386,0,0,0,3,16.417H17a.386.386,0,0,0,.281-.118.378.378,0,0,0,.119-.278V2.979a.378.378,0,0,0-.119-.278A.386.386,0,0,0,17,2.583Zm2,.4V16.021a1.9,1.9,0,0,1-.587,1.4A1.936,1.936,0,0,1,17,18H3a1.936,1.936,0,0,1-1.412-.581A1.9,1.9,0,0,1,1,16.021V2.979a1.9,1.9,0,0,1,.588-1.4A1.936,1.936,0,0,1,3,1H17a1.936,1.936,0,0,1,1.413.581A1.9,1.9,0,0,1,19,2.979Z" fill="#1c1b1b"/>
    <circle id="타원_34" data-name="타원 34" cx="1.5" cy="1.5" r="1.5" transform="translate(5 5)" fill="#1c1b1b"/>
  </g>
</svg>
