<svg xmlns="http://www.w3.org/2000/svg" width="24" height="26" viewBox="0 0 24 26">
  <g id="arrow-bar-left" transform="translate(-5.997 -5)">
    <g id="그룹_69" data-name="그룹 69" transform="translate(5.997 3)">
      <path id="패스_212" data-name="패스 212" d="M28.906,31a1.081,1.081,0,0,1-1.091-1.071V6.071a1.091,1.091,0,0,1,2.182,0V29.929A1.081,1.081,0,0,1,28.906,31ZM23.452,18a1.081,1.081,0,0,1-1.091,1.071H9.723l3.684,3.6a1.059,1.059,0,0,1,0,1.517,1.106,1.106,0,0,1-1.545,0L6.318,18.759a1.058,1.058,0,0,1,0-1.517l5.545-5.429a1.106,1.106,0,0,1,1.545,0,1.059,1.059,0,0,1,0,1.517l-3.684,3.6H22.362A1.081,1.081,0,0,1,23.452,18Z" transform="translate(-5.997 -3)" fill="#b9b9b9" fill-rule="evenodd"/>
    </g>
  </g>
</svg>
