<svg xmlns="http://www.w3.org/2000/svg" width="18" height="18.661" viewBox="0 0 18 18.661">
  <g id="_3d-square_linear" data-name="3d-square_linear" transform="translate(-10.98 -10.492)">
    <path id="패스_214" data-name="패스 214" d="M12.039,17.537a1.036,1.036,0,0,1,1.416-.377l6.8,3.94L27,17.187a1.036,1.036,0,1,1,1.04,1.793l-7.266,4.213a1.036,1.036,0,0,1-1.039,0l-7.322-4.241A1.036,1.036,0,0,1,12.039,17.537Z" transform="translate(-0.284 -2.019)" fill="#1c1b1b" fill-rule="evenodd"/>
    <path id="패스_215" data-name="패스 215" d="M23.536,23.14a1.036,1.036,0,0,1,1.036,1.036v7.529a1.036,1.036,0,0,1-2.072,0V24.176A1.036,1.036,0,0,1,23.536,23.14Z" transform="translate(-3.563 -3.912)" fill="#1c1b1b" fill-rule="evenodd"/>
    <path id="패스_216" data-name="패스 216" d="M19.972,10.492a4.673,4.673,0,0,1,2.228.521l0,0,4.418,2.457A4.607,4.607,0,0,1,28.3,15.179a4.654,4.654,0,0,1,.676,2.295v4.7a4.954,4.954,0,0,1-2.356,4L22.2,28.629l0,0a4.693,4.693,0,0,1-2.225.522,4.63,4.63,0,0,1-2.22-.525h0l-4.417-2.457a4.92,4.92,0,0,1-2.359-4V17.488a4.954,4.954,0,0,1,2.356-4l4.415-2.456A4.581,4.581,0,0,1,19.972,10.492Zm.006,2.072a2.532,2.532,0,0,0-1.2.268l-.012.007L14.343,15.3a2.916,2.916,0,0,0-1.291,2.189v4.683a2.6,2.6,0,0,0,.391,1.245,2.555,2.555,0,0,0,.895.941l.006,0,4.422,2.46a2.587,2.587,0,0,0,1.209.262,2.65,2.65,0,0,0,1.224-.264h0l4.417-2.457a2.915,2.915,0,0,0,1.291-2.189v-4.7a2.6,2.6,0,0,0-.391-1.245,2.556,2.556,0,0,0-.894-.941l-.006,0L21.2,12.828h0A2.628,2.628,0,0,0,19.978,12.565Z" transform="translate(0)" fill="#1c1b1b" fill-rule="evenodd"/>
  </g>
</svg>
